<svg width="20" height="13" viewBox="0 0 20 13" fill="none" xmlns="http://www.w3.org/2000/svg">
<path d="M9.95333 12.286H8.98133L8.71133 10H1.94333L1.67333 12.286H0.701328V8.74H1.76333C1.85933 8.608 1.98533 8.374 2.14133 8.038C2.29733 7.69 2.44733 7.21 2.59133 6.598C2.74733 5.974 2.87933 5.206 2.98733 4.294C3.10733 3.37 3.17933 2.272 3.20333 1H8.63933V8.74H9.95333V12.286ZM7.19933 8.74V2.26H4.49933C4.47533 2.764 4.43333 3.316 4.37333 3.916C4.31333 4.504 4.22933 5.098 4.12133 5.698C4.02533 6.286 3.89933 6.844 3.74333 7.372C3.58733 7.9 3.40733 8.356 3.20333 8.74H7.19933ZM11.2316 5.5C11.2316 3.976 11.5676 2.812 12.2396 2.008C12.9236 1.192 13.9016 0.784 15.1736 0.784C15.8456 0.784 16.4276 0.898 16.9196 1.126C17.4236 1.342 17.8376 1.66 18.1616 2.08C18.4856 2.488 18.7256 2.986 18.8816 3.574C19.0376 4.15 19.1156 4.792 19.1156 5.5C19.1156 7.024 18.7736 8.194 18.0896 9.01C17.4176 9.814 16.4456 10.216 15.1736 10.216C14.5016 10.216 13.9136 10.108 13.4096 9.892C12.9176 9.664 12.5096 9.346 12.1856 8.938C11.8616 8.518 11.6216 8.02 11.4656 7.444C11.3096 6.856 11.2316 6.208 11.2316 5.5ZM12.7256 5.5C12.7256 5.956 12.7676 6.394 12.8516 6.814C12.9476 7.234 13.0916 7.6 13.2836 7.912C13.4756 8.224 13.7276 8.476 14.0396 8.668C14.3516 8.86 14.7296 8.956 15.1736 8.956C16.8056 8.968 17.6216 7.816 17.6216 5.5C17.6216 5.032 17.5736 4.588 17.4776 4.168C17.3936 3.748 17.2556 3.382 17.0636 3.07C16.8716 2.758 16.6196 2.512 16.3076 2.332C15.9956 2.14 15.6176 2.044 15.1736 2.044C13.5416 2.032 12.7256 3.184 12.7256 5.5Z" fill="black"/>
</svg>
