<svg width="16" height="11" viewBox="0 0 16 11" fill="none" xmlns="http://www.w3.org/2000/svg">
<path d="M0.340984 5.5C0.340984 3.976 0.676984 2.812 1.34898 2.008C2.03298 1.192 3.01098 0.784 4.28298 0.784C4.95498 0.784 5.53698 0.898 6.02898 1.126C6.53298 1.342 6.94698 1.66 7.27098 2.08C7.59498 2.488 7.83498 2.986 7.99099 3.574C8.14698 4.15 8.22498 4.792 8.22498 5.5C8.22498 7.024 7.88298 8.194 7.19898 9.01C6.52698 9.814 5.55498 10.216 4.28298 10.216C3.61098 10.216 3.02298 10.108 2.51898 9.892C2.02698 9.664 1.61898 9.346 1.29498 8.938C0.970984 8.518 0.730984 8.02 0.574984 7.444C0.418984 6.856 0.340984 6.208 0.340984 5.5ZM1.83498 5.5C1.83498 5.956 1.87698 6.394 1.96098 6.814C2.05698 7.234 2.20098 7.6 2.39298 7.912C2.58498 8.224 2.83698 8.476 3.14898 8.668C3.46098 8.86 3.83898 8.956 4.28298 8.956C5.91498 8.968 6.73098 7.816 6.73098 5.5C6.73098 5.032 6.68298 4.588 6.58698 4.168C6.50298 3.748 6.36498 3.382 6.17298 3.07C5.98098 2.758 5.72898 2.512 5.41698 2.332C5.10498 2.14 4.72698 2.044 4.28298 2.044C2.65098 2.032 1.83498 3.184 1.83498 5.5ZM15.9561 2.26H13.1301V10H11.6901V2.26H8.86413V1H15.9561V2.26Z" fill="black"/>
</svg>
